<svg width="9542" height="3519" viewBox="0 0 9542 3519" fill="none" xmlns="http://www.w3.org/2000/svg">
<path d="M9542 2L0 0V3062C7.06653 2566.3 746.893 2480.86 1057.03 2496.86C2175.9 2580.88 2869.8 2305.82 3076.88 2157.79C3795.32 1773.71 4603.06 1798.72 4917.13 1859.23C5762.75 2088.48 4986.18 3220.82 4562.19 3293.33C4465.33 3293.33 4214.8 3268.12 4055.75 3293.33C3913.08 3315.94 3760.68 3388.12 3672.5 3405.86C3804.41 3476.67 4179.42 3489.37 4300.14 3486.87C4648.75 3368.05 4920.42 3383.35 5012.68 3405.86C5881.86 3482.67 7138.68 2654.04 7069 2463.5C6840.52 2241.46 9250.51 1107.73 9542 985.209V2Z" fill="#41355D"/>
<path d="M3694.91 3289.56C3647.81 3278.05 3608.47 3294.36 3594.68 3303.95L3668.59 3356.7C3650.8 3343.89 3678.72 3306.6 3694.91 3289.56Z" fill="#FA7808"/>
<path d="M3640.12 3448.65C3639.64 3470.04 3639.55 3512.1 3642.78 3516.41C3643.43 3516.72 3643.61 3516.84 3643.24 3516.75C3643.08 3516.71 3642.93 3516.6 3642.78 3516.41C3635.42 3512.85 3567.51 3484.28 3559.02 3448.65H3640.12Z" fill="#FA7808"/>
<path d="M3594.68 3303.95C3608.47 3294.36 3647.81 3278.05 3694.91 3289.56C3678.72 3306.6 3650.8 3343.89 3668.59 3356.7L3594.68 3303.95ZM3640.12 3448.65C3639.62 3470.99 3639.54 3515.89 3643.24 3516.75C3647.86 3517.83 3568.26 3487.43 3559.02 3448.65H3640.12Z" stroke="#D69153" stroke-width="4"/>
<path d="M3721.22 3386.13C3722 3360.09 3686.81 3360.82 3669.13 3364.43C3673.25 3399.15 3660.17 3431.89 3653.12 3443.92C3666.35 3453.37 3678.9 3457.53 3683.52 3458.42C3712.82 3463.41 3720.87 3412.3 3721.22 3386.13Z" fill="#FABE06" stroke="#E2D35E" stroke-width="5"/>
<path d="M3356.64 3257.55C3515.28 3240.19 3630.71 3315.7 3668.59 3355.62C3676.06 3413.89 3657.24 3442.92 3646.89 3450.15C3506.04 3465.88 3386.4 3407.44 3344.18 3376.25C3236.76 3295.64 3307.73 3263.53 3356.64 3257.55Z" fill="#9288DF" stroke="#9B96C7" stroke-width="4"/>
</svg>
