<svg width="2476" height="456" viewBox="0 0 2476 456" fill="none" xmlns="http://www.w3.org/2000/svg">
<path d="M0 456L38.6389 381.624C77.2777 307.945 154.555 158.149 231.833 84.47C309.111 10.0943 386.389 10.0943 463.666 28.7318C540.944 46.6725 618.222 84.9925 695.499 65.8325C772.777 46.6725 850.055 -26.4839 927.333 10.0943C1004.61 46.6725 1081.89 196.469 1159.17 242.279C1236.44 288.785 1313.72 233.047 1391 223.816C1468.28 213.887 1545.55 252.207 1622.83 270.148C1700.11 288.785 1777.39 288.785 1854.67 279.554C1931.94 269.625 2009.22 252.207 2086.5 260.916C2163.78 269.625 2241.05 307.945 2279.69 325.886L2324.8 351L2476 456H2453.81H2402.48H2318.33H2279.69C2241.05 456 2163.78 456 2086.5 456C2009.22 456 1931.94 456 1854.67 456C1777.39 456 1700.11 456 1622.83 456C1545.55 456 1468.28 456 1391 456C1313.72 456 1236.44 456 1159.17 456C1081.89 456 1004.61 456 927.333 456C850.055 456 772.777 456 695.499 456C618.222 456 540.944 456 463.666 456C386.389 456 309.111 456 231.833 456C154.555 456 77.2777 456 38.6389 456H0Z" fill="url(#paint0_linear_18_2)"/>
<defs>
<linearGradient id="paint0_linear_18_2" x1="2025.82" y1="7.13989e-06" x2="1958.56" y2="611.342" gradientUnits="userSpaceOnUse">
<stop stop-color="#9EFF00"/>
<stop offset="1" stop-color="#2EA7DB"/>
</linearGradient>
</defs>
</svg>
