<svg width="635" height="629" viewBox="0 0 635 629" fill="none" xmlns="http://www.w3.org/2000/svg">
<path d="M453.999 24.6587L454.503 25.0924C460.783 30.4896 464.055 38.5854 463.287 46.8314L462.34 57.0065L404.821 33.9408L427.487 18.4662C435.229 13.1805 445.736 14.7626 451.529 22.0865C452.268 23.0207 453.095 23.882 453.999 24.6587Z" fill="url(#paint0_linear_2_3)"/>
<path d="M554.283 533.706L553.706 534.055C546.617 538.341 537.887 538.966 530.262 535.731L520.742 531.694L560.449 484.338L568.343 510.557C571.026 519.467 566.28 528.923 557.501 532.158C556.381 532.57 555.304 533.089 554.283 533.706Z" fill="url(#paint1_linear_2_3)"/>
<path d="M224.655 35.749C224.655 33.978 226.106 32.5424 227.896 32.5424C229.686 32.5424 231.137 33.978 231.137 35.749V38.9556H224.655V35.749Z" fill="url(#paint2_linear_2_3)"/>
<path d="M201.968 37.066C201.968 36.0224 202.823 35.1764 203.877 35.1764C204.932 35.1764 205.787 36.0224 205.787 37.066V38.9556H203.869C202.819 38.9556 201.968 38.1096 201.968 37.066Z" fill="url(#paint3_linear_2_3)"/>
<path d="M204.398 33.1532C204.398 31.5509 205.711 30.252 207.331 30.252C210.57 30.252 213.195 32.8498 213.195 36.0544V38.9556H204.398V33.1532Z" fill="url(#paint4_linear_2_3)"/>
<path d="M211.343 34.2602C211.343 29.0739 215.593 24.8695 220.835 24.8695C223.456 24.8695 225.581 26.9717 225.581 29.5649V38.9556H211.343V34.2602Z" fill="url(#paint5_linear_2_3)"/>
<path d="M227.234 33.75C227.234 30.8749 224.889 28.5443 221.996 28.5443C219.103 28.5443 216.758 30.8749 216.758 33.75V38.9557H227.234V33.75Z" fill="url(#paint6_linear_2_3)"/>
<path d="M217.374 34.5666C217.374 32.1425 215.397 30.1774 212.957 30.1774C210.518 30.1774 208.541 32.1425 208.541 34.5666V38.9557H217.374V34.5666Z" fill="url(#paint7_linear_2_3)"/>
<path d="M214.087 35.6892C214.087 33.8853 215.559 32.4229 217.374 32.4229C219.189 32.4229 220.661 33.8853 220.661 35.6892V38.9556H214.087V35.6892Z" fill="url(#paint8_linear_2_3)"/>
<path d="M225.591 37.8249C225.591 35.7435 223.893 34.0561 221.798 34.0561C221.17 34.0561 220.661 34.5623 220.661 35.1867V38.9556H225.591V37.8249Z" fill="url(#paint9_linear_2_3)"/>
<path d="M528.713 102.875C528.713 101.104 530.164 99.668 531.954 99.668C533.744 99.668 535.195 101.104 535.195 102.875V106.081H528.713V102.875Z" fill="url(#paint10_linear_2_3)"/>
<path d="M506.026 104.192C506.026 103.148 506.881 102.302 507.936 102.302C508.991 102.302 509.846 103.148 509.846 104.192V106.081H507.927C506.877 106.081 506.026 105.235 506.026 104.192Z" fill="url(#paint11_linear_2_3)"/>
<path d="M508.457 100.279C508.457 98.6765 509.77 97.3776 511.389 97.3776C514.628 97.3776 517.254 99.9754 517.254 103.18V106.081H508.457V100.279Z" fill="url(#paint12_linear_2_3)"/>
<path d="M515.402 101.386C515.402 96.1995 519.651 91.9951 524.893 91.9951C527.514 91.9951 529.639 94.0973 529.639 96.6905V106.081H515.402V101.386Z" fill="url(#paint13_linear_2_3)"/>
<path d="M531.292 100.875C531.292 98.0004 528.947 95.6697 526.054 95.6697C523.161 95.6697 520.816 98.0004 520.816 100.875V106.081H531.292V100.875Z" fill="url(#paint14_linear_2_3)"/>
<path d="M521.432 101.692C521.432 99.268 519.455 97.3029 517.016 97.3029C514.577 97.3029 512.599 99.268 512.599 101.692V106.081H521.432V101.692Z" fill="url(#paint15_linear_2_3)"/>
<path d="M518.146 102.815C518.146 101.011 519.617 99.5484 521.432 99.5484C523.248 99.5484 524.719 101.011 524.719 102.815V106.081H518.146V102.815Z" fill="url(#paint16_linear_2_3)"/>
<path d="M529.649 104.95C529.649 102.869 527.951 101.182 525.857 101.182C525.228 101.182 524.719 101.688 524.719 102.312V106.081H529.649V104.95Z" fill="url(#paint17_linear_2_3)"/>
<path d="M28.9944 146.812L39.5609 188.133L97.0424 111.337L82.281 105.967C72.7788 102.51 62.111 105.683 56.0618 113.765L55.5269 114.48C52.6829 118.279 48.5929 120.972 43.9662 122.091C32.93 124.759 26.1978 135.875 28.9944 146.812Z" fill="url(#paint18_linear_2_3)"/>
<path d="M64.923 536.584L107.579 541.151L55.1975 460.832L44.9773 472.72C38.4097 480.359 37.6853 491.397 43.197 499.848L43.6847 500.596C46.2768 504.571 47.3905 509.319 46.8323 514.018C45.5009 525.226 53.6378 535.376 64.923 536.584Z" fill="url(#paint19_linear_2_3)"/>
<path d="M598.205 153.137L589.393 144.057C578.896 133.24 564.288 127.359 549.21 127.878L601.413 219.147L607.263 206.646C610.56 199.6 612.079 191.855 611.689 184.082C611.107 172.492 606.315 161.494 598.205 153.137Z" fill="url(#paint20_linear_2_3)"/>
<mask id="path-12-inside-1_2_3" fill="white">
<path fill-rule="evenodd" clip-rule="evenodd" d="M617.938 370.277C594.961 516.844 467.395 629 313.47 629C143.28 629 5.31445 491.889 5.31445 322.753C5.31445 221.631 54.6309 131.957 130.665 76.1876C133.54 69.9938 135.21 64.7277 135.017 63.6572C134.635 61.5359 139.243 50.5372 141.595 45.303C147.106 39.0779 149.593 32.1882 150.147 29.5215C154.659 20.0335 164.928 29.6708 170.95 35.322C173.575 37.7852 175.393 39.4911 175.575 38.5259C176.056 35.9824 182.248 37.6009 185.284 38.7281C191.698 30.7497 202.115 32.8689 207.217 35.1983C240.339 23.1069 276.129 16.5062 313.47 16.5062C367.91 16.5062 419.052 30.5355 463.436 55.1545L463.639 55.1995L483.698 55.6171L510.673 41.8701C528.492 35.1088 525.299 51.8971 521.475 61.1364L521.097 79.0693L526.218 79.1759L526.084 85.557L525.938 92.4881L523.671 98.8126C583.943 154.712 621.626 234.359 621.626 322.753C621.626 324.494 621.611 326.231 621.582 327.965L624.175 328.043C642.583 330.606 631.899 343.446 624.257 349.546L619.675 357.403C619.332 360.434 618.944 363.451 618.512 366.454L619.751 367.167L617.938 370.277Z"/>
</mask>
<path fill-rule="evenodd" clip-rule="evenodd" d="M617.938 370.277C594.961 516.844 467.395 629 313.47 629C143.28 629 5.31445 491.889 5.31445 322.753C5.31445 221.631 54.6309 131.957 130.665 76.1876C133.54 69.9938 135.21 64.7277 135.017 63.6572C134.635 61.5359 139.243 50.5372 141.595 45.303C147.106 39.0779 149.593 32.1882 150.147 29.5215C154.659 20.0335 164.928 29.6708 170.95 35.322C173.575 37.7852 175.393 39.4911 175.575 38.5259C176.056 35.9824 182.248 37.6009 185.284 38.7281C191.698 30.7497 202.115 32.8689 207.217 35.1983C240.339 23.1069 276.129 16.5062 313.47 16.5062C367.91 16.5062 419.052 30.5355 463.436 55.1545L463.639 55.1995L483.698 55.6171L510.673 41.8701C528.492 35.1088 525.299 51.8971 521.475 61.1364L521.097 79.0693L526.218 79.1759L526.084 85.557L525.938 92.4881L523.671 98.8126C583.943 154.712 621.626 234.359 621.626 322.753C621.626 324.494 621.611 326.231 621.582 327.965L624.175 328.043C642.583 330.606 631.899 343.446 624.257 349.546L619.675 357.403C619.332 360.434 618.944 363.451 618.512 366.454L619.751 367.167L617.938 370.277Z" fill="#D9D9D9"/>
<path d="M617.938 370.277L613.618 367.758L613.144 368.572L612.998 369.502L617.938 370.277ZM130.665 76.1876L133.623 80.2194L134.659 79.4589L135.201 78.2925L130.665 76.1876ZM135.017 63.6572L130.097 64.5439L130.097 64.5439L135.017 63.6572ZM141.595 45.303L137.852 41.9887L137.347 42.559L137.035 43.2537L141.595 45.303ZM150.147 29.5215L145.632 27.3743L145.374 27.9163L145.252 28.5038L150.147 29.5215ZM170.95 35.322L174.372 31.676L174.372 31.676L170.95 35.322ZM175.575 38.5259L180.488 39.4542L180.488 39.4542L175.575 38.5259ZM185.284 38.7281L183.544 43.4155L186.923 44.67L189.182 41.8606L185.284 38.7281ZM207.217 35.1983L205.14 39.7466L207.005 40.5983L208.931 39.8951L207.217 35.1983ZM463.436 55.1545L461.011 59.5269L461.646 59.8791L462.355 60.0362L463.436 55.1545ZM463.639 55.1995L462.558 60.0812L463.041 60.1881L463.535 60.1984L463.639 55.1995ZM483.698 55.6171L483.594 60.616L484.849 60.6421L485.968 60.072L483.698 55.6171ZM510.673 41.8701L508.899 37.1953L508.645 37.2918L508.403 37.4152L510.673 41.8701ZM521.475 61.1364L516.855 59.2243L516.496 60.0921L516.476 61.031L521.475 61.1364ZM521.097 79.0693L516.098 78.9639L515.993 83.9641L520.993 84.0682L521.097 79.0693ZM526.218 79.1759L531.217 79.2813L531.323 74.2811L526.322 74.177L526.218 79.1759ZM526.084 85.557L531.083 85.6624L526.084 85.557ZM525.938 92.4881L530.644 94.1753L530.919 93.4082L530.937 92.5935L525.938 92.4881ZM523.671 98.8126L518.964 97.1254L517.85 100.233L520.27 102.479L523.671 98.8126ZM621.582 327.965L616.583 327.881L616.5 332.816L621.433 332.963L621.582 327.965ZM624.175 328.043L624.865 323.091L624.596 323.053L624.325 323.045L624.175 328.043ZM624.257 349.546L621.138 345.638L620.408 346.22L619.937 347.027L624.257 349.546ZM619.675 357.403L615.356 354.885L614.826 355.794L614.707 356.84L619.675 357.403ZM618.512 366.454L613.563 365.742L613.081 369.096L616.017 370.787L618.512 366.454ZM619.751 367.167L624.07 369.685L626.602 365.343L622.246 362.834L619.751 367.167ZM313.47 634C469.873 634 599.521 520.036 622.877 371.051L612.998 369.502C590.4 513.652 464.917 624 313.47 624V634ZM0.314453 322.753C0.314453 494.679 140.548 634 313.47 634V624C146.013 624 10.3145 489.098 10.3145 322.753H0.314453ZM127.708 72.1559C50.4512 128.822 0.314453 219.964 0.314453 322.753H10.3145C10.3145 223.299 58.8107 135.092 133.623 80.2194L127.708 72.1559ZM130.097 64.5439C129.981 63.9011 130.061 63.4794 130.044 63.6192C130.04 63.6451 130.02 63.7798 129.956 64.0504C129.83 64.5841 129.602 65.3744 129.256 66.3985C128.568 68.4315 127.501 71.1285 126.13 74.0827L135.201 78.2925C136.704 75.053 137.91 72.02 138.728 69.6039C139.134 68.4034 139.467 67.2893 139.69 66.341C139.801 65.8706 139.902 65.3698 139.964 64.8786C140.012 64.5013 140.102 63.6809 139.938 62.7704L130.097 64.5439ZM137.035 43.2537C135.833 45.9282 134.052 50.0801 132.609 53.8669C131.891 55.7511 131.225 57.6269 130.756 59.2198C130.524 60.011 130.313 60.8203 130.175 61.5745C130.068 62.1615 129.878 63.3291 130.097 64.5439L139.938 62.7704C140.062 63.4549 139.932 63.8148 140.012 63.3739C140.062 63.1 140.168 62.6613 140.35 62.0412C140.712 60.8116 141.273 59.2129 141.953 57.428C143.307 53.8766 145.006 49.912 146.156 47.3523L137.035 43.2537ZM145.252 28.5038C144.858 30.3985 142.733 36.4749 137.852 41.9887L145.339 48.6173C151.48 41.6809 154.328 33.9779 155.042 30.5391L145.252 28.5038ZM174.372 31.676C171.52 28.9995 166.885 24.5911 162.207 22.2667C159.851 21.0964 156.743 20.0655 153.462 20.7298C149.847 21.4616 147.249 23.9732 145.632 27.3743L154.663 31.6687C155.002 30.954 155.279 30.6673 155.381 30.5786C155.43 30.5355 155.451 30.5269 155.445 30.5302C155.438 30.5335 155.434 30.5333 155.446 30.5309C155.548 30.5104 156.229 30.463 157.758 31.2224C160.847 32.7575 164.359 35.9933 167.529 38.968L174.372 31.676ZM170.662 37.5976C170.793 36.9032 171.291 35.3647 172.969 34.4149C174.525 33.5346 175.958 33.8221 176.423 33.945C176.947 34.0837 177.263 34.2782 177.281 34.2889C177.34 34.324 177.322 34.3189 177.209 34.2327C176.66 33.8138 175.776 32.994 174.372 31.676L167.529 38.968C168.749 40.1132 170.087 41.3778 171.148 42.1864C171.54 42.4848 172.568 43.2693 173.867 43.6127C174.569 43.7983 176.194 44.08 177.895 43.1178C179.717 42.0863 180.312 40.39 180.488 39.4542L170.662 37.5976ZM187.025 34.0407C185.308 33.4033 182.582 32.5739 180.04 32.2829C178.829 32.1443 177.169 32.0645 175.561 32.4998C173.807 32.9748 171.268 34.3891 170.662 37.5977L180.488 39.4542C180.341 40.2327 179.926 40.9629 179.331 41.4926C178.805 41.9601 178.324 42.1119 178.175 42.1522C177.958 42.2108 178.126 42.1291 178.903 42.218C180.337 42.3822 182.225 42.9257 183.544 43.4155L187.025 34.0407ZM209.293 30.65C206.207 29.2409 201.537 27.8839 196.524 28.1025C191.376 28.327 185.685 30.2495 181.387 35.5956L189.182 41.8606C191.297 39.2282 194.021 38.2211 196.96 38.093C200.035 37.9589 203.124 38.8263 205.14 39.7466L209.293 30.65ZM313.47 11.5062C275.536 11.5062 239.166 18.2123 205.502 30.5015L208.931 39.8951C241.511 28.0015 276.722 21.5062 313.47 21.5062V11.5062ZM465.861 50.7821C420.753 25.7614 368.778 11.5062 313.47 11.5062V21.5062C367.041 21.5062 417.351 35.3095 461.011 59.5269L465.861 50.7821ZM464.721 50.3178L464.517 50.2727L462.355 60.0362L462.558 60.0812L464.721 50.3178ZM483.802 50.6182L463.744 50.2006L463.535 60.1984L483.594 60.616L483.802 50.6182ZM508.403 37.4152L481.428 51.1622L485.968 60.072L512.944 46.3249L508.403 37.4152ZM526.095 63.0485C527.15 60.4993 528.174 57.4067 528.807 54.2668C529.425 51.209 529.761 47.6849 529.082 44.4706C528.368 41.0837 526.361 37.5441 522.099 36.0206C518.278 34.6543 513.75 35.3546 508.899 37.1953L512.447 46.5449C516.506 45.0049 518.261 45.2682 518.733 45.4369C518.765 45.4483 519.062 45.4155 519.298 46.5354C519.571 47.8279 519.505 49.8107 519.005 52.288C518.522 54.6832 517.712 57.1539 516.855 59.2243L526.095 63.0485ZM526.096 79.1747L526.474 61.2418L516.476 61.031L516.098 78.9639L526.096 79.1747ZM526.322 74.177L521.201 74.0704L520.993 84.0682L526.114 84.1748L526.322 74.177ZM531.083 85.6624L531.217 79.2813L521.219 79.0705L521.085 85.4516L531.083 85.6624ZM530.937 92.5935L531.083 85.6624L521.085 85.4516L520.939 92.3827L530.937 92.5935ZM528.377 100.5L530.644 94.1753L521.231 90.8009L518.964 97.1254L528.377 100.5ZM626.626 322.753C626.626 232.905 588.316 151.949 527.071 95.1466L520.27 102.479C579.569 157.475 616.626 235.813 616.626 322.753H626.626ZM626.581 328.049C626.611 326.287 626.626 324.522 626.626 322.753H616.626C616.626 324.466 616.611 326.175 616.583 327.881L626.581 328.049ZM621.433 332.963L624.026 333.041L624.325 323.045L621.731 322.968L621.433 332.963ZM623.486 332.995C627.672 333.578 629 334.619 629.283 334.939C629.36 335.026 629.351 335.038 629.354 335.061C629.365 335.142 629.381 335.429 629.207 335.993C628.833 337.204 627.848 338.854 626.249 340.732C624.705 342.546 622.847 344.273 621.138 345.638L627.376 353.454C629.487 351.768 631.831 349.603 633.864 347.214C635.843 344.889 637.811 342.025 638.762 338.943C639.765 335.695 639.741 331.669 636.774 328.314C634.122 325.315 629.882 323.789 624.865 323.091L623.486 332.995ZM619.937 347.027L615.356 354.885L623.995 359.922L628.576 352.064L619.937 347.027ZM623.461 367.165C623.9 364.113 624.294 361.046 624.643 357.966L614.707 356.84C614.369 359.821 613.988 362.788 613.563 365.742L623.461 367.165ZM616.017 370.787L617.256 371.5L622.246 362.834L621.007 362.121L616.017 370.787ZM615.432 364.648L613.618 367.758L622.257 372.795L624.07 369.685L615.432 364.648Z" fill="#6B6B6B" mask="url(#path-12-inside-1_2_3)"/>
<path fill-rule="evenodd" clip-rule="evenodd" d="M204.741 247.91C199.197 262.681 211.766 275.472 218.744 280.021C213.689 277.453 209.863 274.298 207.004 270.871C206.155 272.867 202.167 274.99 199.978 275.928C199.981 275.957 199.976 275.963 199.96 275.935C199.935 275.892 199.883 275.768 199.791 275.525C199.761 275.444 199.762 275.344 199.791 275.228C200.086 274.058 203.21 271.269 204.883 269.906L206.498 270.249C205.602 269.121 204.808 267.965 204.105 266.793C199.468 271.873 196.958 271.052 196.255 269.906C196.353 268.798 200.595 266.974 203.575 265.875C202.971 264.786 202.443 263.687 201.984 262.585C198.74 264.574 194.493 264.98 192.719 264.928C192.578 265.303 192.38 265.731 192.719 264.447C193.011 263.344 197.63 260.98 200.87 259.486C200.657 258.788 200.469 258.091 200.305 257.399C198.453 257.829 195.102 256.766 193.144 255.937C192.74 255.021 196.803 253.782 199.56 253.107C199.487 252.447 199.432 251.796 199.396 251.157C196.973 250.931 192.461 248.705 191.729 248.231C190.937 247.717 193.097 247.267 194.275 247.107C195.29 246.164 197.753 245.94 199.471 245.948C199.642 244.005 199.963 242.273 200.357 240.845C203.864 224.533 220.959 215.531 229.068 213.069C253.056 202.537 281.494 210.072 292.714 215.156C305.429 221.1 310.202 229.979 311.183 238.241C312.608 236.919 314.575 236.767 316.759 240.524C319.917 240.31 326.263 240.171 326.376 241.327C327.225 242.183 325.81 243.832 313.364 243.575C313.506 244.538 314.382 246.465 316.759 246.465L321.709 245.822C321.541 248.066 318.995 251.441 310.501 249.048C310.078 250.816 309.533 252.436 308.937 253.847C314.195 255.715 322.277 258.552 322.982 258.667C323.83 258.881 325.273 259.437 324.255 259.951C321.015 258.984 313.552 257.167 307.468 256.923C306.409 258.779 304.853 260.7 303.007 262.602C305.089 264.839 305.788 266.839 305.868 267.658C302.134 265.089 302.426 266.587 303.039 267.658C304.737 268.3 305.632 270.066 305.868 270.869C305.189 271.896 303.699 270.013 303.039 268.942C298.853 267.915 299.598 270.227 300.494 271.511C302.53 271.64 302.474 272.956 302.191 273.598C298.457 271.158 298.843 273.117 299.503 274.401C304.708 277.869 308.461 283.018 309.687 285.158C301.006 283.476 296.931 274.26 295.747 269.004C293.619 270.66 291.446 272.211 289.406 273.582L292.714 275.525C294.864 275.782 295.402 278.415 295.402 279.699H294.129C291.187 277.516 291.111 279.111 291.442 280.181L297.523 288.53H295.826L287.34 278.576V276.328L286.381 275.55C285.117 276.345 283.956 277.04 282.955 277.612C273.225 283.007 272.206 282.001 272.913 280.823C308.216 264.126 302.426 240.471 295.119 230.73C285.162 215.702 260.42 215.692 249.294 217.565C218.63 221.29 206.816 239.347 204.741 247.91ZM320.86 269.906C320.521 268.621 311.573 264.233 307.141 262.199V263.965C317.551 269.36 320.624 270.173 320.86 269.906ZM308.131 216.762C307.678 216.248 304.642 216.976 303.181 217.404C302.945 217.404 302.841 217.757 304.312 219.17C305.783 220.583 307.471 218.153 308.131 216.762ZM307.141 220.615H310.818V222.863C309.215 223.773 306.236 224.597 307.141 220.615ZM319.022 228.322C318.569 227.294 314.307 227.144 312.233 227.198L313.364 233.299C318.343 234.84 326.471 232.657 329.912 231.372C330.704 231.116 322.982 229.232 319.022 228.322Z" fill="#414246"/>
<path fill-rule="evenodd" clip-rule="evenodd" d="M550.201 390.084C555.745 404.855 543.176 417.646 536.198 422.195C541.253 419.627 545.078 416.473 547.938 413.045C548.787 415.041 552.775 417.165 554.964 418.102C554.961 418.132 554.966 418.137 554.982 418.11C555.007 418.066 555.059 417.942 555.151 417.699C555.181 417.618 555.18 417.518 555.151 417.402C554.856 416.233 551.732 413.443 550.059 412.08L548.444 412.424C549.34 411.295 550.134 410.139 550.837 408.967C555.474 414.048 557.984 413.226 558.687 412.08C558.589 410.972 554.347 409.148 551.367 408.049C551.971 406.961 552.499 405.861 552.958 404.759C556.201 406.748 560.449 407.154 562.223 407.103C562.364 407.477 562.562 407.906 562.223 406.621C561.931 405.519 557.312 403.155 554.072 401.661C554.285 400.962 554.473 400.265 554.637 399.573C556.489 400.003 559.84 398.941 561.798 398.112C562.202 397.196 558.139 395.956 555.382 395.281C555.455 394.621 555.51 393.971 555.546 393.331C557.969 393.106 562.481 390.879 563.213 390.405C564.005 389.891 561.845 389.442 560.667 389.281C559.652 388.339 557.189 388.115 555.471 388.122C555.3 386.179 554.979 384.448 554.585 383.02C551.077 366.707 533.983 357.705 525.874 355.244C501.886 344.711 473.448 352.247 462.227 357.331C449.513 363.274 444.74 372.153 443.759 380.416C442.334 379.094 440.366 378.941 438.183 382.698C435.025 382.484 428.679 382.345 428.566 383.501C427.717 384.358 429.131 386.006 441.578 385.749C441.436 386.712 440.559 388.639 438.183 388.639L433.233 387.997C433.401 390.24 435.947 393.615 444.441 391.222C444.864 392.991 445.408 394.61 446.005 396.022C440.747 397.889 432.665 400.727 431.96 400.841C431.112 401.055 429.669 401.612 430.687 402.126C433.927 401.158 441.389 399.342 447.474 399.097C448.533 400.953 450.089 402.875 451.935 404.777C449.853 407.014 449.154 409.014 449.074 409.832C452.808 407.263 452.515 408.762 451.903 409.832C450.205 410.475 449.31 412.241 449.074 413.043C449.753 414.071 451.243 412.187 451.903 411.117C456.089 410.089 455.344 412.401 454.448 413.686C452.412 413.814 452.468 415.131 452.751 415.773C456.485 413.332 456.098 415.291 455.438 416.576C450.234 420.044 446.481 425.192 445.255 427.333C453.936 425.65 458.011 416.434 459.195 411.178C461.323 412.835 463.496 414.385 465.536 415.757L462.227 417.699C460.078 417.956 459.54 420.589 459.54 421.874H460.813C463.755 419.69 463.83 421.285 463.5 422.355L457.419 430.704H459.116L467.602 420.75V418.502L468.561 417.725C469.825 418.52 470.986 419.215 471.987 419.787C481.717 425.181 482.736 424.175 482.028 422.998C446.726 406.3 452.516 382.645 459.823 372.905C469.78 357.877 494.522 357.866 505.648 359.739C536.312 363.464 548.126 381.521 550.201 390.084ZM434.082 412.08C434.421 410.796 443.369 406.407 447.801 404.373V406.139C437.391 411.534 434.317 412.348 434.082 412.08ZM446.811 358.936C447.263 358.423 450.3 359.15 451.761 359.578C451.997 359.578 452.101 359.932 450.63 361.345C449.159 362.757 447.471 360.328 446.811 358.936ZM447.801 362.79H444.124V365.037C445.727 365.947 448.706 366.771 447.801 362.79ZM435.92 370.496C436.373 369.469 440.635 369.319 442.709 369.372L441.578 375.473C436.599 377.015 428.471 374.831 425.03 373.547C424.238 373.29 431.96 371.406 435.92 370.496Z" fill="#414246"/>
<path d="M117.987 128.813C120.147 127.019 125.609 123.417 130.187 123.368C136.094 120.976 148.23 115.784 149.521 114.153C156.226 112.385 169.118 110.479 167.051 117.002L169.134 116.294L169.293 115.044L176.92 115.372L171.227 116.969L171.733 118.602L166.371 119.083L165.313 120.593L169.948 120.506L179.531 125.527L179.255 127.098C176.405 125.281 170.315 121.755 168.756 122.186L167.175 121.912L167.76 122.919C167.369 123.53 165.865 124.16 162.98 121.793L160.486 124.242C164.582 126.117 173.257 130.024 175.191 130.657C174.401 130.956 170.204 130.386 159.734 125.717C158.217 126.409 155.122 127.802 154.877 127.83C154.633 127.859 157.839 130.147 159.473 131.287C159.283 132.284 157.882 133.261 153.802 129.189L153.664 133.206L150.148 131.007L152.959 136.367C151.557 135.867 148.587 134.515 147.924 133.117C148.494 135.716 148.699 139.58 144.961 134.237C144.898 134.147 144.837 134.059 144.777 133.974C145.651 137.826 146.958 145.232 145.228 144.208C143.733 142.076 140.55 137.221 139.77 134.852C138.261 136.467 134.821 139.808 133.14 140.253C132.54 139.555 131.304 137.855 131.159 136.641L132.196 145.289C131.221 144.481 129.161 141.678 128.716 136.93L125.662 137.292C126.692 145.018 127.26 155.784 121.296 137.039C120.327 137.564 118.286 138.534 117.876 138.214C117.721 140.797 117.099 145.938 115.848 145.84C115.746 145.832 115.657 145.826 115.578 145.822C115.572 145.893 115.567 145.962 115.561 146.028C115.17 145.933 114.684 145.771 115.578 145.822C115.719 143.993 115.81 140.554 115.139 139.923C114.22 140.442 112.313 141.15 112.03 139.829C111.976 139.374 108.951 134.808 117.987 128.813Z" fill="#37383C"/>
<path d="M118.672 135.811C126.843 129.919 147.027 118.142 162.39 118.169C158.858 124.435 145.168 136.736 118.672 135.811Z" fill="#D9D9D9"/>
<path d="M491.547 124.982C488.502 123.009 480.945 119.221 475.068 119.852C467.126 117.682 450.766 112.867 448.86 110.973C439.991 109.723 423.168 109.237 426.821 117.287L424.041 116.695L423.644 115.117L413.916 116.695L421.46 117.879L421.063 120.049L428.012 119.852L429.601 121.628L423.644 122.22L412.129 130.113L412.724 132.086C416.1 129.323 423.366 123.877 425.431 124.193L427.417 123.601L426.821 124.982C427.417 125.706 429.442 126.285 432.777 122.812L436.351 125.574C431.388 128.6 420.865 134.927 418.482 136.032C419.541 136.295 424.836 134.927 437.543 127.35C439.594 128.008 443.777 129.323 444.095 129.323C444.412 129.323 440.653 132.743 438.734 134.453C439.131 135.703 441.077 136.742 445.683 130.902L446.477 136.032L450.647 132.678L447.867 139.978C449.588 139.123 453.188 136.94 453.823 135.045C453.492 138.466 453.823 143.451 457.794 136.032C457.861 135.907 457.926 135.785 457.99 135.667C457.461 140.739 456.925 150.433 458.985 148.857C460.574 145.898 463.909 139.189 464.545 136.032C466.729 137.874 471.653 141.636 473.876 141.951C474.538 140.965 475.862 138.597 475.862 137.019V148.266C476.987 147.082 479.197 143.175 479.038 137.019H483.009C482.877 147.082 483.804 160.973 488.569 136.032C489.892 136.558 492.659 137.492 493.135 137.019C493.731 140.307 495.319 146.805 496.908 146.49C497.037 146.464 497.151 146.443 497.251 146.425C497.269 146.516 497.287 146.603 497.305 146.687C497.791 146.506 498.389 146.225 497.251 146.425C496.789 144.102 496.143 139.706 496.908 138.794C498.165 139.321 500.72 139.939 500.878 138.202C500.878 137.61 504.055 131.296 491.547 124.982Z" fill="#37383C"/>
<path d="M491.745 134.059C480.362 127.745 452.672 115.708 432.976 118.076C438.469 125.574 457.913 139.268 491.745 134.059Z" fill="#D9D9D9"/>
<path d="M86.4781 227.879C89.2832 225.348 96.1557 220.33 101.205 220.506C106.815 219.296 118.678 218.085 121.247 222.927L122.797 224.688C123.535 224.688 125.122 224.864 125.565 225.568C126.008 226.339 126.872 227.879 126.783 227.879C126.672 227.879 125.011 225.678 123.35 226.559L122.797 227.219C123.851 228.298 125.866 230.178 126.562 230.21C126.643 230.169 126.717 230.125 126.783 230.08C126.747 230.175 126.671 230.215 126.562 230.21C125.642 230.681 123.79 230.856 122.243 228.429C122.243 229.016 121.955 230.278 120.804 230.63C122.391 231.29 125.565 232.831 125.565 233.711C124.347 233.161 121.69 231.951 120.804 231.511L122.243 233.711C121.874 233.785 120.693 233.689 118.921 232.721C119.549 233.381 120.804 234.812 120.804 235.252C120.804 235.688 119.344 235.088 118.738 234.327C119.554 236.272 120.804 239.307 120.804 239.544C120.804 239.839 118.048 237.308 117.554 235.354C117.798 237.661 118.045 241.244 117.482 241.084C116.707 240.864 116.042 236.903 115.267 236.683C115.304 238.443 115.245 241.943 114.714 241.855C114.566 240.314 114.116 237.409 113.496 238.113C113.496 239.69 113.385 242.867 112.942 242.955L110.395 239.214C110.691 240.461 111.193 242.955 110.838 242.955C110.395 242.955 109.067 241.634 109.288 239.874C109.14 240.901 108.712 243.021 108.181 243.285C107.738 243.432 106.941 243.021 107.295 240.204C106.778 240.497 105.612 241.084 105.08 241.084C105.449 242.331 106.033 244.87 105.413 245.046C105.007 243.872 104.217 241.436 104.305 241.084C104.416 240.644 103.641 243.725 103.309 243.725C102.977 243.725 102.201 248.677 101.205 248.347C101.722 246.44 102.556 242.471 101.759 241.855H100.54C100.43 243.138 99.9647 245.684 98.9903 245.596C99.1749 244.459 99.3668 242.031 98.6581 241.414C97.883 243.028 96.1335 246.278 95.3363 246.366C95.7054 245.009 96.3328 242.207 95.8899 241.855C95.4101 243.395 94.1847 246.52 93.1217 246.696C93.5646 245.229 94.1847 242.207 93.1217 241.855H92.0144C91.3501 243.615 89.8442 246.982 89.1355 246.366C90.0213 245.303 91.5272 242.911 90.4643 241.855L89.4677 241.414C88.8033 242.772 87.0981 245.31 85.5922 244.606C86.6257 243.432 88.6262 240.842 88.3604 239.874C87.6961 240.497 86.2123 241.678 85.5922 241.414C85.8875 241.194 86.4781 240.446 86.4781 239.214C86.4781 237.981 85.6661 237.966 85.26 238.113C84.2266 240.131 81.8939 244.077 80.8309 243.725C82.1597 241.708 84.7064 237.475 84.2635 236.683C83.3777 234.98 82.5804 230.835 86.4781 227.879Z" fill="#444549"/>
<path d="M106.741 224.138C98.4145 223.257 91.0917 229.346 88.4711 232.501C85.3707 237.959 92.8633 240.131 96.9971 240.534C108.867 242.031 116.338 235.362 118.589 231.841C121.601 225.326 111.945 223.991 106.741 224.138Z" fill="#D9D9D9"/>
<defs>
<linearGradient id="paint0_linear_2_3" x1="465.663" y1="18.8719" x2="434.671" y2="54.1153" gradientUnits="userSpaceOnUse">
<stop stop-color="#9EFF00"/>
<stop offset="1" stop-color="#2EA7DB"/>
</linearGradient>
<linearGradient id="paint1_linear_2_3" x1="556.254" y1="546.513" x2="532.454" y2="506.124" gradientUnits="userSpaceOnUse">
<stop stop-color="#9EFF00"/>
<stop offset="1" stop-color="#2EA7DB"/>
</linearGradient>
<linearGradient id="paint2_linear_2_3" x1="225.833" y1="24.8695" x2="220.743" y2="42.5143" gradientUnits="userSpaceOnUse">
<stop stop-color="#9EFF00"/>
<stop offset="1" stop-color="#2EA7DB"/>
</linearGradient>
<linearGradient id="paint3_linear_2_3" x1="225.833" y1="24.8695" x2="220.743" y2="42.5143" gradientUnits="userSpaceOnUse">
<stop stop-color="#9EFF00"/>
<stop offset="1" stop-color="#2EA7DB"/>
</linearGradient>
<linearGradient id="paint4_linear_2_3" x1="225.833" y1="24.8695" x2="220.743" y2="42.5143" gradientUnits="userSpaceOnUse">
<stop stop-color="#9EFF00"/>
<stop offset="1" stop-color="#2EA7DB"/>
</linearGradient>
<linearGradient id="paint5_linear_2_3" x1="225.833" y1="24.8695" x2="220.743" y2="42.5143" gradientUnits="userSpaceOnUse">
<stop stop-color="#9EFF00"/>
<stop offset="1" stop-color="#2EA7DB"/>
</linearGradient>
<linearGradient id="paint6_linear_2_3" x1="211.94" y1="28.5443" x2="216.172" y2="41.2633" gradientUnits="userSpaceOnUse">
<stop stop-color="#9EFF00"/>
<stop offset="1" stop-color="#2EA7DB"/>
</linearGradient>
<linearGradient id="paint7_linear_2_3" x1="211.94" y1="28.5443" x2="216.172" y2="41.2633" gradientUnits="userSpaceOnUse">
<stop stop-color="#9EFF00"/>
<stop offset="1" stop-color="#2EA7DB"/>
</linearGradient>
<linearGradient id="paint8_linear_2_3" x1="223.499" y1="32.4229" x2="220.802" y2="40.3721" gradientUnits="userSpaceOnUse">
<stop stop-color="#9EFF00"/>
<stop offset="1" stop-color="#2EA7DB"/>
</linearGradient>
<linearGradient id="paint9_linear_2_3" x1="223.499" y1="32.4229" x2="220.802" y2="40.3721" gradientUnits="userSpaceOnUse">
<stop stop-color="#9EFF00"/>
<stop offset="1" stop-color="#2EA7DB"/>
</linearGradient>
<linearGradient id="paint10_linear_2_3" x1="529.892" y1="91.9951" x2="524.801" y2="109.64" gradientUnits="userSpaceOnUse">
<stop stop-color="#9EFF00"/>
<stop offset="1" stop-color="#2EA7DB"/>
</linearGradient>
<linearGradient id="paint11_linear_2_3" x1="529.892" y1="91.9951" x2="524.801" y2="109.64" gradientUnits="userSpaceOnUse">
<stop stop-color="#9EFF00"/>
<stop offset="1" stop-color="#2EA7DB"/>
</linearGradient>
<linearGradient id="paint12_linear_2_3" x1="529.892" y1="91.9951" x2="524.801" y2="109.64" gradientUnits="userSpaceOnUse">
<stop stop-color="#9EFF00"/>
<stop offset="1" stop-color="#2EA7DB"/>
</linearGradient>
<linearGradient id="paint13_linear_2_3" x1="529.892" y1="91.9951" x2="524.801" y2="109.64" gradientUnits="userSpaceOnUse">
<stop stop-color="#9EFF00"/>
<stop offset="1" stop-color="#2EA7DB"/>
</linearGradient>
<linearGradient id="paint14_linear_2_3" x1="515.998" y1="95.6697" x2="520.23" y2="108.389" gradientUnits="userSpaceOnUse">
<stop stop-color="#9EFF00"/>
<stop offset="1" stop-color="#2EA7DB"/>
</linearGradient>
<linearGradient id="paint15_linear_2_3" x1="515.998" y1="95.6697" x2="520.23" y2="108.389" gradientUnits="userSpaceOnUse">
<stop stop-color="#9EFF00"/>
<stop offset="1" stop-color="#2EA7DB"/>
</linearGradient>
<linearGradient id="paint16_linear_2_3" x1="527.558" y1="99.5484" x2="524.861" y2="107.498" gradientUnits="userSpaceOnUse">
<stop stop-color="#9EFF00"/>
<stop offset="1" stop-color="#2EA7DB"/>
</linearGradient>
<linearGradient id="paint17_linear_2_3" x1="527.558" y1="99.5484" x2="524.861" y2="107.498" gradientUnits="userSpaceOnUse">
<stop stop-color="#9EFF00"/>
<stop offset="1" stop-color="#2EA7DB"/>
</linearGradient>
<linearGradient id="paint18_linear_2_3" x1="47.0303" y1="96.0543" x2="84.6458" y2="147.486" gradientUnits="userSpaceOnUse">
<stop stop-color="#9EFF00"/>
<stop offset="1" stop-color="#2EA7DB"/>
</linearGradient>
<linearGradient id="paint19_linear_2_3" x1="23.3462" y1="502.086" x2="84.8045" y2="484.42" gradientUnits="userSpaceOnUse">
<stop stop-color="#9EFF00"/>
<stop offset="1" stop-color="#2EA7DB"/>
</linearGradient>
<linearGradient id="paint20_linear_2_3" x1="621.937" y1="185.597" x2="578.405" y2="200.31" gradientUnits="userSpaceOnUse">
<stop stop-color="#9EFF00"/>
<stop offset="1" stop-color="#2EA7DB"/>
</linearGradient>
</defs>
</svg>
